<?xml version="1.0" standalone="no"?>
<!DOCTYPE svg PUBLIC "-//W3C//DTD SVG 20010904//EN"
 "http://www.w3.org/TR/2001/REC-SVG-20010904/DTD/svg10.dtd">
<svg version="1.0" xmlns="http://www.w3.org/2000/svg"
 width="831.000000pt" height="269.000000pt" viewBox="0 0 831.000000 269.000000"
 preserveAspectRatio="xMidYMid meet">

<g transform="translate(0.000000,269.000000) scale(0.100000,-0.100000)"
fill="#000000" stroke="none">
<path d="M100 1901 l0 -461 373 0 c204 0 413 5 462 10 241 28 402 111 456 237
46 108 43 338 -6 439 -48 98 -146 164 -307 206 -78 20 -111 22 -530 25 l-448
4 0 -460z m678 229 c99 -11 180 -45 210 -87 47 -67 52 -201 9 -265 -26 -38
-76 -73 -126 -89 -20 -6 -114 -14 -208 -16 l-173 -5 0 236 0 236 103 0 c56 0
140 -4 185 -10z"/>
<path d="M1730 1901 l0 -461 190 0 189 0 3 133 3 132 165 0 c150 -1 169 -3
206 -23 49 -25 78 -67 95 -137 6 -27 18 -62 26 -77 l14 -28 183 0 183 0 -15
63 c-42 178 -59 210 -130 246 l-36 19 40 20 c52 26 108 88 125 138 20 57 18
170 -4 226 -21 55 -89 121 -150 147 -117 50 -155 54 -634 58 l-453 4 0 -460z
m791 219 c74 -21 101 -80 59 -132 -28 -37 -82 -46 -285 -49 l-180 -3 -3 89
c-2 48 0 95 3 103 5 13 32 14 188 9 100 -4 198 -11 218 -17z"/>
<path d="M3280 1900 l0 -460 560 0 560 0 0 115 0 115 -365 0 -365 0 0 70 0 70
285 0 285 0 0 90 0 90 -285 0 -285 0 0 75 0 75 340 0 340 0 0 110 0 110 -535
0 -535 0 0 -460z"/>
<path d="M5123 2253 c-245 -380 -513 -802 -513 -807 0 -3 87 -6 193 -6 l193 0
43 75 42 75 293 0 292 0 43 -75 43 -75 195 0 c107 0 193 4 191 9 -1 4 -133
211 -292 460 l-289 451 -183 0 -182 0 -69 -107z m331 -291 c42 -74 76 -136 76
-138 0 -2 -70 -4 -155 -4 -85 0 -155 3 -155 7 0 8 153 274 155 270 1 -1 37
-62 79 -135z"/>
<path d="M6400 1900 l0 -460 195 0 195 0 2 289 3 290 170 -290 170 -289 145 0
145 0 170 290 170 291 3 -291 2 -290 195 0 195 0 0 460 0 460 -233 0 -233 0
-205 -325 c-112 -178 -206 -325 -209 -325 -3 0 -97 146 -210 325 l-205 325
-232 0 -233 0 0 -460z"/>
<path d="M840 1218 c21 -46 119 -252 219 -458 l181 -375 163 -3 162 -2 100
262 c119 317 125 331 131 326 2 -3 49 -123 104 -269 55 -145 105 -276 111
-292 l11 -27 162 0 161 0 222 460 221 460 -197 0 -196 0 -114 -290 c-63 -159
-116 -288 -118 -287 -2 3 -219 511 -240 565 -4 9 -36 12 -131 10 l-125 -3 -23
-55 c-13 -30 -68 -160 -123 -289 l-98 -234 -115 289 -114 289 -197 3 -196 2
39 -82z"/>
<path d="M3473 1193 c-245 -380 -513 -802 -513 -807 0 -3 87 -6 193 -6 l193 0
43 75 42 75 293 0 292 0 43 -75 43 -75 195 0 c107 0 193 4 191 9 -1 4 -133
211 -292 460 l-289 451 -183 0 -182 0 -69 -107z m331 -291 c42 -74 76 -136 76
-138 0 -2 -70 -4 -155 -4 -85 0 -155 3 -155 7 0 8 153 274 155 270 1 -1 37
-62 79 -135z"/>
<path d="M4694 1238 c20 -35 136 -242 258 -460 l223 -398 180 0 181 0 239 428
c132 235 248 442 258 460 l19 32 -198 -2 -198 -3 -147 -318 c-80 -175 -149
-320 -151 -323 -3 -2 -72 141 -154 318 l-150 323 -198 3 -197 2 35 -62z"/>
<path d="M6310 840 l0 -460 555 0 555 0 0 115 0 115 -360 0 -360 0 0 70 0 70
283 2 282 3 3 88 3 87 -286 0 -285 0 0 75 0 75 335 0 335 0 0 110 0 110 -530
0 -530 0 0 -460z"/>
</g>
</svg>
